<svg width="34" height="36" viewBox="0 0 34 36" fill="none" xmlns="http://www.w3.org/2000/svg">
<path d="M28.3451 18.5978C28.3277 15.726 29.771 13.5584 32.6924 11.9621C31.0578 9.85717 28.5886 8.69905 25.3281 8.47213C22.2415 8.25302 18.8681 10.0919 17.6334 10.0919C16.3293 10.0919 13.3383 8.55038 10.9908 8.55038C6.13925 8.6208 0.983391 12.0325 0.983391 18.9734C0.983391 21.0236 1.40073 23.1416 2.2354 25.3274C3.34831 28.1992 7.36518 35.2417 11.556 35.1244C13.747 35.0774 15.2946 33.7237 18.1464 33.7237C20.9113 33.7237 22.3459 35.1244 24.789 35.1244C29.0146 35.0696 32.6489 28.6687 33.7096 25.789C28.0408 23.3867 28.3451 18.7465 28.3451 18.5978ZM23.424 5.74899C25.7976 3.21367 25.5802 0.905265 25.5107 0.0758057C23.4153 0.185357 20.9895 1.35912 19.6071 2.80676C18.0856 4.35613 17.19 6.27328 17.3813 8.433C19.6506 8.5895 21.7199 7.54094 23.424 5.74899Z" fill="black"/>
</svg>
