<svg width="23" height="25" viewBox="0 0 23 25" fill="none" xmlns="http://www.w3.org/2000/svg">
<path d="M5.21809 0.344482C5.39711 0.344482 5.5688 0.4235 5.69538 0.564152C5.82197 0.704805 5.89309 0.89557 5.89309 1.09448V1.84448H16.6931V1.09448C16.6931 0.89557 16.7642 0.704805 16.8908 0.564152C17.0174 0.4235 17.1891 0.344482 17.3681 0.344482C17.5471 0.344482 17.7188 0.4235 17.8454 0.564152C17.972 0.704805 18.0431 0.89557 18.0431 1.09448V1.84448H19.3931C20.1092 1.84448 20.7959 2.16055 21.3023 2.72316C21.8086 3.28577 22.0931 4.04883 22.0931 4.84448V21.3445C22.0931 22.1401 21.8086 22.9032 21.3023 23.4658C20.7959 24.0284 20.1092 24.3445 19.3931 24.3445H3.19309C2.477 24.3445 1.79025 24.0284 1.2839 23.4658C0.777551 22.9032 0.493088 22.1401 0.493088 21.3445V4.84448C0.493088 4.04883 0.777551 3.28577 1.2839 2.72316C1.79025 2.16055 2.477 1.84448 3.19309 1.84448H4.54309V1.09448C4.54309 0.89557 4.6142 0.704805 4.74079 0.564152C4.86738 0.4235 5.03907 0.344482 5.21809 0.344482V0.344482ZM1.84309 6.34448V21.3445C1.84309 21.7423 1.98532 22.1238 2.23849 22.4051C2.49167 22.6864 2.83505 22.8445 3.19309 22.8445H19.3931C19.7511 22.8445 20.0945 22.6864 20.3477 22.4051C20.6009 22.1238 20.7431 21.7423 20.7431 21.3445V6.34448H1.84309Z" fill="#7889B2"/>
</svg>
