<svg width="20" height="17" viewBox="0 0 20 17" fill="none" xmlns="http://www.w3.org/2000/svg">
<path d="M17 0.717712H3C2.20435 0.717712 1.44129 1.03378 0.87868 1.59639C0.316071 2.159 0 2.92206 0 3.71771V13.7177C0 14.5134 0.316071 15.2764 0.87868 15.839C1.44129 16.4016 2.20435 16.7177 3 16.7177H17C17.7956 16.7177 18.5587 16.4016 19.1213 15.839C19.6839 15.2764 20 14.5134 20 13.7177V3.71771C20 2.92206 19.6839 2.159 19.1213 1.59639C18.5587 1.03378 17.7956 0.717712 17 0.717712ZM16.33 2.71771L10 7.46771L3.67 2.71771H16.33ZM17 14.7177H3C2.73478 14.7177 2.48043 14.6124 2.29289 14.4248C2.10536 14.2373 2 13.9829 2 13.7177V3.96771L9.4 9.51771C9.5731 9.64753 9.78363 9.71771 10 9.71771C10.2164 9.71771 10.4269 9.64753 10.6 9.51771L18 3.96771V13.7177C18 13.9829 17.8946 14.2373 17.7071 14.4248C17.5196 14.6124 17.2652 14.7177 17 14.7177Z" fill="#AAAAAA"/>
</svg>
