<svg width="35" height="34" viewBox="0 0 35 34" fill="none" xmlns="http://www.w3.org/2000/svg">
<path d="M33.8189 13.6668H32.4743V13.5975H17.4501V20.2749H26.8845C25.5081 24.162 21.8096 26.9523 17.4501 26.9523C11.9187 26.9523 7.434 22.4676 7.434 16.9362C7.434 11.4048 11.9187 6.92008 17.4501 6.92008C20.0034 6.92008 22.3263 7.8833 24.095 9.45666L28.8167 4.7349C25.8353 1.95627 21.8472 0.242676 17.4501 0.242676C8.23111 0.242676 0.756592 7.7172 0.756592 16.9362C0.756592 26.1552 8.23111 33.6297 17.4501 33.6297C26.6691 33.6297 34.1436 26.1552 34.1436 16.9362C34.1436 15.8169 34.0284 14.7243 33.8189 13.6668Z" fill="#FFC107"/>
<path d="M2.68152 9.1662L8.16617 13.1885C9.65023 9.51426 13.2443 6.92008 17.4503 6.92008C20.0035 6.92008 22.3265 7.8833 24.0951 9.45666L28.8169 4.7349C25.8354 1.95627 21.8473 0.242676 17.4503 0.242676C11.0383 0.242676 5.47768 3.86267 2.68152 9.1662Z" fill="#FF3D00"/>
<path d="M17.45 33.6296C21.762 33.6296 25.6799 31.9795 28.6422 29.296L23.4756 24.924C21.7432 26.2414 19.6264 26.9539 17.45 26.9522C13.108 26.9522 9.42128 24.1836 8.03238 20.3199L2.58862 24.5141C5.3514 29.9203 10.9621 33.6296 17.45 33.6296Z" fill="#4CAF50"/>
<path d="M33.8191 13.6667H32.4745V13.5974H17.4503V20.2748H26.8847C26.2263 22.1248 25.0403 23.7414 23.4733 24.9248L23.4758 24.9231L28.6425 29.2952C28.2769 29.6274 34.1438 25.2829 34.1438 16.9361C34.1438 15.8168 34.0287 14.7242 33.8191 13.6667Z" fill="#1976D2"/>
</svg>
