<svg width="25" height="25" viewBox="0 0 25 25" fill="none" xmlns="http://www.w3.org/2000/svg">
<path d="M10.3631 1.01591C10.9036 0.582237 11.587 0.344482 12.2931 0.344482C12.9991 0.344482 13.6826 0.582237 14.2231 1.01591L23.2231 8.24152C23.5581 8.5103 23.8275 8.84579 24.0123 9.22447C24.1971 9.60316 24.293 10.0159 24.2931 10.4336V22.435C24.2931 22.9414 24.0824 23.4271 23.7073 23.7852C23.3322 24.1433 22.8235 24.3445 22.2931 24.3445H16.7931C16.2627 24.3445 15.754 24.1433 15.3789 23.7852C15.0038 23.4271 14.7931 22.9414 14.7931 22.435V15.7517H9.79309V22.435C9.79309 22.9414 9.58238 23.4271 9.2073 23.7852C8.83223 24.1433 8.32352 24.3445 7.79309 24.3445H2.29309C1.76266 24.3445 1.25395 24.1433 0.878877 23.7852C0.503804 23.4271 0.293091 22.9414 0.293091 22.435V10.4327C0.293201 10.0149 0.389037 9.6022 0.573876 9.22352C0.758715 8.84484 1.02808 8.50934 1.36309 8.24057L10.3631 1.01495V1.01591ZM12.9371 2.47669C12.7568 2.3318 12.5287 2.25234 12.2931 2.25234C12.0574 2.25234 11.8294 2.3318 11.6491 2.47669L2.64909 9.70421C2.53784 9.79362 2.44836 9.90512 2.38688 10.0309C2.32539 10.1568 2.29339 10.2939 2.29309 10.4327V22.434H7.79309V15.7507C7.79309 15.2443 8.0038 14.7586 8.37888 14.4005C8.75395 14.0424 9.26266 13.8412 9.79309 13.8412H14.7931C15.3235 13.8412 15.8322 14.0424 16.2073 14.4005C16.5824 14.7586 16.7931 15.2443 16.7931 15.7507V22.434H22.2931V10.4327C22.2931 10.2935 22.2612 10.1561 22.1997 10.0299C22.1382 9.90373 22.0486 9.79192 21.9371 9.7023L12.9371 2.47669Z" fill="white"/>
</svg>
