<svg width="14" height="18" viewBox="0 0 14 18" fill="none" xmlns="http://www.w3.org/2000/svg">
<path d="M7.00004 0.436401C4.70254 0.436401 2.83337 2.30557 2.83337 4.60307V7.10307H2.00004C1.08087 7.10307 0.333374 7.85057 0.333374 8.76973V15.4364C0.333374 16.3556 1.08087 17.1031 2.00004 17.1031H12C12.9192 17.1031 13.6667 16.3556 13.6667 15.4364V8.76973C13.6667 7.85057 12.9192 7.10307 12 7.10307H11.1667V4.60307C11.1667 2.30557 9.29754 0.436401 7.00004 0.436401ZM12 8.76973L12.0017 15.4364H2.00004V8.76973H12ZM4.50004 7.10307V4.60307C4.50004 3.22473 5.62171 2.10307 7.00004 2.10307C8.37837 2.10307 9.50004 3.22473 9.50004 4.60307V7.10307H4.50004Z" fill="#AAAAAA"/>
</svg>
