<svg width="32" height="33" viewBox="0 0 32 33" fill="none" xmlns="http://www.w3.org/2000/svg">
<path d="M15.3236 3.01123C18.6337 3.01123 21.3333 5.66456 21.3333 8.93123V15.3179H13.1938C12.6104 15.3179 12.1492 15.7712 12.1492 16.3446C12.1492 16.9046 12.6104 17.3712 13.1938 17.3712H21.3333V23.7446C21.3333 27.0112 18.6337 29.6779 15.2965 29.6779H8.68988C5.36624 29.6779 2.66663 27.0246 2.66663 23.7579V8.94456C2.66663 5.66456 5.3798 3.01123 8.70345 3.01123H15.3236ZM24.7202 11.7448C25.1202 11.3315 25.7736 11.3315 26.1736 11.7315L30.0669 15.6115C30.2669 15.8115 30.3736 16.0648 30.3736 16.3448C30.3736 16.6115 30.2669 16.8782 30.0669 17.0648L26.1736 20.9448C25.9736 21.1448 25.7069 21.2515 25.4536 21.2515C25.1869 21.2515 24.9202 21.1448 24.7202 20.9448C24.3202 20.5448 24.3202 19.8915 24.7202 19.4915L26.8536 17.3715H21.3336V15.3182H26.8536L24.7202 13.1982C24.3202 12.7982 24.3202 12.1448 24.7202 11.7448Z" fill="#FE615C"/>
</svg>
