<svg width="22" height="20" viewBox="0 0 22 20" fill="none" xmlns="http://www.w3.org/2000/svg">
<path d="M3.095 17.9L6.266 16.8425L6.821 17.12C8.096 17.756 9.5135 18.095 11 18.095C15.965 18.095 20 14.186 20 9.84497C20 5.50397 15.965 1.59497 11 1.59497C6.035 1.59497 2 5.50397 2 9.84497C2 11.465 2.585 13.109 3.6605 14.5145L4.178 15.1895L3.0935 17.8985L3.095 17.9ZM2.0345 19.835C1.89876 19.8804 1.75284 19.8861 1.61397 19.8513C1.47511 19.8166 1.3491 19.7428 1.25084 19.6386C1.15257 19.5345 1.08615 19.4045 1.05942 19.2639C1.03269 19.1232 1.04677 18.9779 1.1 18.845L2.468 15.425C1.22 13.79 0.5 11.834 0.5 9.84497C0.5 4.87397 5 0.0949707 11 0.0949707C17 0.0949707 21.5 4.87397 21.5 9.84497C21.5 14.816 17 19.595 11 19.595C9.31725 19.5997 7.65665 19.2114 6.1505 18.461L2.0345 19.8335V19.835Z" fill="#7889B2"/>
</svg>
