<svg width="25" height="25" viewBox="0 0 25 25" fill="none" xmlns="http://www.w3.org/2000/svg">
<path fill-rule="evenodd" clip-rule="evenodd" d="M12.2856 4.50366C10.4907 4.50366 9.03564 5.95874 9.03564 7.75366C9.03564 9.54859 10.4907 11.0037 12.2856 11.0037C14.0806 11.0037 15.5356 9.54859 15.5356 7.75366C15.5356 5.95874 14.0806 4.50366 12.2856 4.50366ZM7.53564 7.75366C7.53564 5.13031 9.66229 3.00366 12.2856 3.00366C14.909 3.00366 17.0356 5.13031 17.0356 7.75366C17.0356 10.377 14.909 12.5037 12.2856 12.5037C9.66229 12.5037 7.53564 10.377 7.53564 7.75366Z" fill="#AAAAAA"/>
<path fill-rule="evenodd" clip-rule="evenodd" d="M12.2857 15.5037C8.7782 15.5037 6.87613 16.7517 5.91753 18.321C5.53795 18.9424 5.64716 19.5452 6.0898 20.0596C6.55859 20.6043 7.38604 21.0037 8.28574 21.0037H16.2857C17.1854 21.0037 18.0129 20.6043 18.4817 20.0596C18.9243 19.5452 19.0335 18.9424 18.6539 18.321C17.6953 16.7517 15.7933 15.5037 12.2857 15.5037ZM4.63747 17.539C5.93096 15.4216 8.38767 14.0037 12.2857 14.0037C16.1838 14.0037 18.6405 15.4216 19.934 17.539L19.294 17.93L19.934 17.539C20.706 18.8029 20.4157 20.1118 19.6186 21.038C18.8477 21.9338 17.5952 22.5037 16.2857 22.5037H8.28574C6.97631 22.5037 5.72383 21.9338 4.95287 21.038C4.15578 20.1118 3.86544 18.8029 4.63747 17.539Z" fill="#AAAAAA"/>
</svg>
