<svg width="36" height="37" viewBox="0 0 36 37" fill="none" xmlns="http://www.w3.org/2000/svg">
<path fill-rule="evenodd" clip-rule="evenodd" d="M32.2968 11.6353C32.031 12.0879 31.8798 12.8944 31.488 13.4968C30.7257 14.6688 28.3775 16.8532 27.3169 17.9011C26.281 18.9246 25.6215 19.6181 24.4901 20.8351C24.1366 21.2153 22.0992 23.4173 21.5743 23.6948C20.8316 23.2787 20.6202 22.5692 19.8074 22.3437C18.8192 22.0698 17.8752 22.5801 17.8065 23.4103C16.1719 24.2449 21.5715 28.8235 21.5744 28.8248C22.0472 28.63 22.2769 28.2342 22.672 27.8131C23.1027 27.3538 23.3708 27.1182 23.7603 26.7129L32.5219 17.7285C34.1236 16.1037 35.3951 14.575 35.82 12.1407C35.9884 11.1747 36.055 10.0367 35.9487 9.03413C35.9374 8.92863 35.8896 8.60907 35.8578 8.51185C35.5677 7.62075 36.1004 9.01363 35.7586 8.27993C35.7435 8.24764 35.7084 8.19674 35.6952 8.17117C35.6819 8.14566 35.6544 8.09739 35.6275 8.0653C35.8117 5.68323 32.4412 1.55613 28.1356 0.840106C25.0388 0.325042 21.8242 1.55795 19.9405 3.6834C19.4646 4.22053 18.6209 5.16729 18.044 5.53636C16.5687 5.02299 14.6163 0.143825 8.22736 0.777047C0.585937 1.53469 -2.7038 11.254 2.58842 16.8432C4.64783 19.0184 6.60175 20.9857 8.58309 22.995C9.63601 24.0631 13.8486 28.1674 14.44 29.139C15.4444 30.7894 14.7467 32.7395 13.061 33.025C11.2712 33.328 10.3418 31.8522 9.15657 31.1028C9.09904 28.4816 9.23342 27.7041 7.48683 26.4798C4.39778 24.3144 0.226247 27.8862 1.9916 31.5208C2.9177 33.4269 4.22293 33.5342 6.08238 33.6188C7.29724 33.674 8.03831 35.1413 9.81226 36.066C11.1355 36.7556 13.3232 36.9996 14.8415 36.3069C19.1607 34.3364 18.9425 29.2049 17.8223 28.094C17.7251 26.7584 12.0566 21.4128 11.0015 20.35C9.80312 19.1429 8.6617 17.9702 7.37841 16.653C5.70179 14.9318 5.18907 14.6251 3.99701 12.5863C2.05547 4.99146 9.10105 2.93616 12.4252 5.29203C13.0548 5.7382 13.3988 6.15398 14.0059 6.67243C14.3726 6.98546 14.4643 7.14468 14.7788 7.46768C15.1729 7.87199 15.2895 7.84303 15.2284 8.5766C14.9791 8.75224 9.01633 14.7977 8.85301 15.1093L8.48521 15.431C8.80717 16.1299 9.79263 16.9375 10.2939 17.4466C10.7331 17.8926 11.8033 19.1978 12.2685 19.3555C13.5487 19.79 14.5664 19.142 14.7598 18.1141C15.0181 16.7447 13.8679 16.3153 13.5658 15.4708C13.9544 14.7788 17.1996 11.5825 18.0414 10.7284L22.6802 6.02328C26.459 2.53643 32.9817 4.54115 32.2967 11.6353H32.2968ZM4.79014 28.0351C2.44752 28.9255 3.94765 31.9888 5.81618 31.3376C7.97048 30.5869 6.92341 27.2245 4.79014 28.0351Z" fill="#4485FD"/>
</svg>
