<svg width="22" height="25" viewBox="0 0 22 25" fill="none" xmlns="http://www.w3.org/2000/svg">
<path d="M6.55976 11.4112C5.32208 11.4112 4.1351 10.9195 3.25993 10.0443C2.38476 9.16918 1.89309 7.98219 1.89309 6.74451V3.01118C1.89309 2.76365 1.99143 2.52625 2.16646 2.35122C2.3415 2.17618 2.57889 2.07785 2.82643 2.07785H3.75976C4.0073 2.07785 4.24469 1.97952 4.41973 1.80448C4.59476 1.62945 4.69309 1.39205 4.69309 1.14451C4.69309 0.89698 4.59476 0.659583 4.41973 0.484549C4.24469 0.309515 4.0073 0.211182 3.75976 0.211182H2.82643C2.08382 0.211182 1.37163 0.506181 0.846529 1.03128C0.321427 1.55638 0.0264282 2.26858 0.0264282 3.01118V6.74451C0.0276279 7.79894 0.284749 8.83731 0.775708 9.77046C1.26667 10.7036 1.97679 11.5036 2.84509 12.1018C3.67933 12.8373 4.35589 13.7342 4.83392 14.7384C5.31195 15.7426 5.58155 16.8333 5.62643 17.9445C5.62643 19.6773 6.31476 21.339 7.54 22.5643C8.76523 23.7895 10.427 24.4778 12.1598 24.4778C13.8925 24.4778 15.5543 23.7895 16.7795 22.5643C18.0048 21.339 18.6931 19.6773 18.6931 17.9445V16.8805C19.5729 16.6533 20.3397 16.1131 20.8497 15.361C21.3596 14.609 21.5778 13.6967 21.4633 12.7953C21.3488 11.8939 20.9095 11.0652 20.2277 10.4645C19.5459 9.8638 18.6684 9.5324 17.7598 9.5324C16.8511 9.5324 15.9736 9.8638 15.2918 10.4645C14.61 11.0652 14.1707 11.8939 14.0562 12.7953C13.9417 13.6967 14.1599 14.609 14.6699 15.361C15.1798 16.1131 15.9466 16.6533 16.8264 16.8805V17.9445C16.8264 19.1822 16.3348 20.3692 15.4596 21.2443C14.5844 22.1195 13.3974 22.6112 12.1598 22.6112C10.9221 22.6112 9.7351 22.1195 8.85993 21.2443C7.98476 20.3692 7.49309 19.1822 7.49309 17.9445C7.54034 16.8319 7.81285 15.7404 8.29413 14.7361C8.7754 13.7319 9.45545 12.8357 10.2931 12.1018C11.1579 11.5016 11.8644 10.7006 12.3521 9.7676C12.8397 8.83458 13.094 7.79728 13.0931 6.74451V3.01118C13.0931 2.26858 12.7981 1.55638 12.273 1.03128C11.7479 0.506181 11.0357 0.211182 10.2931 0.211182H9.35976C9.11223 0.211182 8.87483 0.309515 8.69979 0.484549C8.52476 0.659583 8.42643 0.89698 8.42643 1.14451C8.42643 1.39205 8.52476 1.62945 8.69979 1.80448C8.87483 1.97952 9.11223 2.07785 9.35976 2.07785H10.2931C10.5406 2.07785 10.778 2.17618 10.9531 2.35122C11.1281 2.52625 11.2264 2.76365 11.2264 3.01118V6.74451C11.2264 7.35735 11.1057 7.96418 10.8712 8.53037C10.6367 9.09656 10.2929 9.61101 9.85959 10.0443C9.42625 10.4777 8.9118 10.8214 8.34562 11.056C7.77943 11.2905 7.1726 11.4112 6.55976 11.4112ZM17.7598 15.1445C17.2647 15.1445 16.7899 14.9478 16.4398 14.5978C16.0898 14.2477 15.8931 13.7729 15.8931 13.2778C15.8931 12.7828 16.0898 12.308 16.4398 11.9579C16.7899 11.6078 17.2647 11.4112 17.7598 11.4112C18.2548 11.4112 18.7296 11.6078 19.0797 11.9579C19.4298 12.308 19.6264 12.7828 19.6264 13.2778C19.6264 13.7729 19.4298 14.2477 19.0797 14.5978C18.7296 14.9478 18.2548 15.1445 17.7598 15.1445Z" fill="#7889B2"/>
</svg>
