<svg width="22" height="23" viewBox="0 0 22 23" fill="none" xmlns="http://www.w3.org/2000/svg">
<path d="M10.8631 0.844482H10.3879C9.81505 0.844482 9.26564 1.06573 8.86056 1.45956C8.45547 1.85338 8.2279 2.38753 8.2279 2.94448V3.13348C8.22751 3.50174 8.12752 3.86343 7.93796 4.18226C7.7484 4.50109 7.47593 4.76585 7.14789 4.94998L6.68348 5.21248C6.35511 5.3968 5.98263 5.49383 5.60346 5.49383C5.2243 5.49383 4.85182 5.3968 4.52345 5.21248L4.36145 5.12848C3.86579 4.85051 3.27694 4.7751 2.72415 4.91881C2.17136 5.06251 1.69981 5.41359 1.41301 5.89498L1.1754 6.29398C0.889484 6.77586 0.811918 7.34835 0.959734 7.88578C1.10755 8.42321 1.46867 8.88165 1.96381 9.16048L2.12582 9.26548C2.45228 9.44872 2.72373 9.71183 2.9132 10.0287C3.10267 10.3455 3.20356 10.705 3.20583 11.0715V11.607C3.20734 11.977 3.10825 12.3409 2.9186 12.6617C2.72894 12.9825 2.45545 13.249 2.12582 13.434L1.96381 13.5285C1.46867 13.8073 1.10755 14.2658 0.959734 14.8032C0.811918 15.3406 0.889484 15.9131 1.1754 16.395L1.41301 16.794C1.69981 17.2754 2.17136 17.6265 2.72415 17.7702C3.27694 17.9139 3.86579 17.8385 4.36145 17.5605L4.52345 17.4765C4.85182 17.2922 5.2243 17.1951 5.60346 17.1951C5.98263 17.1951 6.35511 17.2922 6.68348 17.4765L7.14789 17.739C7.47593 17.9231 7.7484 18.1879 7.93796 18.5067C8.12752 18.8255 8.22751 19.1872 8.2279 19.5555V19.7445C8.2279 20.3014 8.45547 20.8356 8.86056 21.2294C9.26564 21.6232 9.81505 21.8445 10.3879 21.8445H10.8631C11.436 21.8445 11.9854 21.6232 12.3905 21.2294C12.7956 20.8356 13.0232 20.3014 13.0232 19.7445V19.5555C13.0236 19.1872 13.1235 18.8255 13.3131 18.5067C13.5027 18.1879 13.7751 17.9231 14.1032 17.739L14.5676 17.4765C14.896 17.2922 15.2684 17.1951 15.6476 17.1951C16.0268 17.1951 16.3993 17.2922 16.7276 17.4765L16.8896 17.5605C17.3853 17.8385 17.9741 17.9139 18.5269 17.7702C19.0797 17.6265 19.5513 17.2754 19.8381 16.794L20.0757 16.3845C20.3616 15.9026 20.4391 15.3301 20.2913 14.7927C20.1435 14.2553 19.7824 13.7968 19.2873 13.518L19.1253 13.434C18.7956 13.249 18.5221 12.9825 18.3325 12.6617C18.1428 12.3409 18.0437 11.977 18.0452 11.607V11.082C18.0437 10.7119 18.1428 10.3481 18.3325 10.0272C18.5221 9.70642 18.7956 9.44 19.1253 9.25498L19.2873 9.16048C19.7824 8.88165 20.1435 8.42321 20.2913 7.88578C20.4391 7.34835 20.3616 6.77586 20.0757 6.29398L19.8381 5.89498C19.5513 5.41359 19.0797 5.06251 18.5269 4.91881C17.9741 4.7751 17.3853 4.85051 16.8896 5.12848L16.7276 5.21248C16.3993 5.3968 16.0268 5.49383 15.6476 5.49383C15.2684 5.49383 14.896 5.3968 14.5676 5.21248L14.1032 4.94998C13.7751 4.76585 13.5027 4.50109 13.3131 4.18226C13.1235 3.86343 13.0236 3.50174 13.0232 3.13348V2.94448C13.0232 2.38753 12.7956 1.85338 12.3905 1.45956C11.9854 1.06573 11.436 0.844482 10.8631 0.844482V0.844482Z" stroke="#7889B2" stroke-width="1.5" stroke-linecap="round" stroke-linejoin="round"/>
</svg>
