<svg width="38" height="11" viewBox="0 0 38 11" fill="none" xmlns="http://www.w3.org/2000/svg">
<path d="M3.66835 10.8677C3.01502 10.8677 2.42702 10.7557 1.90435 10.5317C1.38169 10.2984 0.97102 9.97171 0.672354 9.55171C0.373687 9.13171 0.224354 8.64171 0.224354 8.08171H1.93235C1.96969 8.50171 2.13302 8.84705 2.42235 9.11771C2.72102 9.38838 3.13635 9.52371 3.66835 9.52371C4.21902 9.52371 4.64835 9.39305 4.95635 9.13171C5.26435 8.86105 5.41835 8.51571 5.41835 8.09571C5.41835 7.76905 5.32035 7.50305 5.12435 7.29771C4.93769 7.09238 4.69969 6.93371 4.41035 6.82171C4.13035 6.70971 3.73835 6.58838 3.23435 6.45771C2.59969 6.28971 2.08169 6.12171 1.68035 5.95371C1.28835 5.77638 0.952354 5.50571 0.672354 5.14171C0.392354 4.77771 0.252354 4.29238 0.252354 3.68571C0.252354 3.12571 0.392354 2.63571 0.672354 2.21571C0.952354 1.79571 1.34435 1.47371 1.84835 1.24971C2.35235 1.02571 2.93569 0.913714 3.59835 0.913714C4.54102 0.913714 5.31102 1.15171 5.90835 1.62771C6.51502 2.09438 6.85102 2.73838 6.91635 3.55971H5.15235C5.12435 3.20505 4.95635 2.90171 4.64835 2.64971C4.34035 2.39771 3.93435 2.27171 3.43035 2.27171C2.97302 2.27171 2.59969 2.38838 2.31035 2.62171C2.02102 2.85505 1.87635 3.19105 1.87635 3.62971C1.87635 3.92838 1.96502 4.17571 2.14235 4.37171C2.32902 4.55838 2.56235 4.70771 2.84235 4.81971C3.12235 4.93171 3.50502 5.05305 3.99035 5.18371C4.63435 5.36105 5.15702 5.53838 5.55835 5.71571C5.96902 5.89305 6.31435 6.16838 6.59435 6.54171C6.88369 6.90571 7.02835 7.39571 7.02835 8.01171C7.02835 8.50638 6.89302 8.97305 6.62235 9.41171C6.36102 9.85038 5.97369 10.205 5.46035 10.4757C4.95635 10.737 4.35902 10.8677 3.66835 10.8677ZM12.9016 2.92971C13.4896 2.92971 14.0122 3.05571 14.4696 3.30771C14.9362 3.55971 15.3002 3.93305 15.5616 4.42771C15.8322 4.92238 15.9676 5.51971 15.9676 6.21971V10.7697H14.3856V6.45771C14.3856 5.76705 14.2129 5.23971 13.8676 4.87571C13.5222 4.50238 13.0509 4.31571 12.4536 4.31571C11.8562 4.31571 11.3802 4.50238 11.0256 4.87571C10.6802 5.23971 10.5076 5.76705 10.5076 6.45771V10.7697H8.91157V0.409714H10.5076V3.95171C10.7782 3.62505 11.1189 3.37305 11.5296 3.19571C11.9496 3.01838 12.4069 2.92971 12.9016 2.92971ZM21.3494 10.8957C20.6214 10.8957 19.9634 10.7324 19.3754 10.4057C18.7874 10.0697 18.3254 9.60305 17.9894 9.00571C17.6534 8.39905 17.4854 7.69905 17.4854 6.90571C17.4854 6.12171 17.658 5.42638 18.0034 4.81971C18.3487 4.21305 18.82 3.74638 19.4174 3.41971C20.0147 3.09305 20.682 2.92971 21.4194 2.92971C22.1567 2.92971 22.824 3.09305 23.4214 3.41971C24.0187 3.74638 24.49 4.21305 24.8354 4.81971C25.1807 5.42638 25.3534 6.12171 25.3534 6.90571C25.3534 7.68971 25.176 8.38505 24.8214 8.99171C24.4667 9.59838 23.9814 10.0697 23.3654 10.4057C22.7587 10.7324 22.0867 10.8957 21.3494 10.8957ZM21.3494 9.50971C21.76 9.50971 22.1427 9.41171 22.4974 9.21571C22.8614 9.01971 23.1554 8.72571 23.3794 8.33371C23.6034 7.94171 23.7154 7.46571 23.7154 6.90571C23.7154 6.34571 23.608 5.87438 23.3934 5.49171C23.1787 5.09971 22.894 4.80571 22.5394 4.60971C22.1847 4.41371 21.802 4.31571 21.3914 4.31571C20.9807 4.31571 20.598 4.41371 20.2434 4.60971C19.898 4.80571 19.6227 5.09971 19.4174 5.49171C19.212 5.87438 19.1094 6.34571 19.1094 6.90571C19.1094 7.73638 19.3194 8.38038 19.7394 8.83771C20.1687 9.28571 20.7054 9.50971 21.3494 9.50971ZM37.2911 3.05571L34.8971 10.7697H33.2171L31.6631 5.07171L30.1091 10.7697H28.4291L26.0211 3.05571H27.6451L29.2551 9.25771L30.8931 3.05571H32.5591L34.1271 9.22971L35.7231 3.05571H37.2911Z" fill="#AAAAAA"/>
</svg>
